<svg xmlns="http://www.w3.org/2000/svg" xmlns:xlink="http://www.w3.org/1999/xlink" width="500" zoomAndPan="magnify" viewBox="0 0 375 374.999991" height="500" preserveAspectRatio="xMidYMid meet" version="1.0"><defs><g/><clipPath id="2e364152a0"><path d="M 16 143 L 165.917969 143 L 165.917969 225 L 16 225 Z M 16 143 " clip-rule="nonzero"/></clipPath></defs><path fill="#2036b3" d="M 114.144531 195.96875 C 115.191406 194.160156 115.285156 191.839844 114.144531 189.875 L 108.855469 180.703125 L 103.566406 189.875 C 102.429688 191.808594 102.523438 194.160156 103.566406 195.96875 C 104.074219 196.855469 104.835938 197.648438 105.816406 198.1875 C 106.765625 198.730469 107.8125 199.015625 108.855469 198.984375 C 109.902344 198.984375 110.945312 198.730469 111.898438 198.1875 C 112.878906 197.648438 113.636719 196.886719 114.144531 195.96875 Z M 67.691406 172.417969 C 66.644531 174.226562 66.550781 176.542969 67.691406 178.511719 L 72.976562 187.683594 L 78.265625 178.511719 C 79.375 176.574219 79.3125 174.226562 78.265625 172.417969 C 77.757812 171.527344 77 170.734375 76.019531 170.195312 C 75.066406 169.65625 74.023438 169.371094 72.976562 169.402344 C 71.933594 169.402344 70.886719 169.65625 69.9375 170.195312 C 68.957031 170.734375 68.195312 171.496094 67.691406 172.417969 Z M 67.691406 172.417969 " fill-opacity="1" fill-rule="evenodd"/><g clip-path="url(#2e364152a0)"><path fill="#2f81ff" d="M 105.722656 186.222656 L 108.886719 180.734375 L 104.613281 173.304688 L 104.613281 173.273438 L 94.703125 156.105469 C 92.484375 152.261719 89.382812 149.058594 85.550781 146.835938 L 85.203125 146.644531 C 81.464844 144.550781 77.253906 143.503906 72.945312 143.503906 C 68.640625 143.503906 64.429688 144.550781 60.660156 146.644531 L 60.375 146.804688 C 56.480469 149.058594 53.40625 152.261719 51.191406 156.105469 L 41.277344 173.273438 L 41.277344 173.304688 L 27.28125 197.617188 C 25.605469 200.539062 26.617188 204.25 29.53125 205.933594 C 32.445312 207.617188 36.148438 206.601562 37.828125 203.679688 L 51.984375 179.113281 L 61.703125 162.230469 C 62.84375 160.230469 64.429688 158.546875 66.421875 157.40625 L 66.644531 157.277344 C 68.542969 156.230469 70.730469 155.753906 72.914062 155.753906 C 75.132812 155.753906 77.285156 156.230469 79.214844 157.277344 L 79.40625 157.375 C 81.433594 158.546875 83.015625 160.230469 84.15625 162.230469 L 93.878906 179.113281 L 103.441406 195.683594 C 102.554688 193.90625 102.523438 191.746094 103.601562 189.90625 Z M 76.113281 182.160156 L 78.234375 178.480469 C 79.3125 176.640625 79.28125 174.449219 78.394531 172.703125 L 87.957031 189.269531 L 97.679688 206.15625 C 98.816406 208.15625 100.402344 209.835938 102.429688 211.011719 L 102.617188 211.105469 C 104.550781 212.1875 106.703125 212.628906 108.921875 212.628906 C 111.136719 212.628906 113.289062 212.152344 115.191406 211.105469 L 115.410156 210.980469 C 117.40625 209.835938 118.988281 208.15625 120.128906 206.15625 L 129.851562 189.269531 L 144.007812 164.703125 C 145.683594 161.785156 149.390625 160.769531 152.304688 162.453125 C 155.21875 164.132812 156.230469 167.847656 154.550781 170.765625 L 140.554688 195.078125 L 140.554688 195.109375 L 130.675781 212.28125 C 128.457031 216.121094 125.355469 219.328125 121.492188 221.582031 L 121.207031 221.738281 C 117.4375 223.867188 113.226562 224.882812 108.921875 224.882812 C 104.613281 224.882812 100.402344 223.832031 96.664062 221.738281 L 96.316406 221.546875 C 92.484375 219.328125 89.382812 216.121094 87.164062 212.28125 L 77.285156 195.109375 L 77.285156 195.078125 L 73.007812 187.652344 Z M 153.695312 149.597656 C 153.695312 152.929688 156.390625 155.628906 159.714844 155.628906 C 163.039062 155.628906 165.730469 152.929688 165.730469 149.597656 C 165.730469 146.265625 163.039062 143.566406 159.714844 143.566406 C 156.390625 143.535156 153.695312 146.265625 153.695312 149.597656 Z M 28.136719 218.789062 C 28.136719 215.453125 25.445312 212.757812 22.121094 212.757812 C 18.796875 212.757812 16.105469 215.453125 16.105469 218.789062 C 16.105469 222.121094 18.796875 224.816406 22.121094 224.816406 C 25.445312 224.816406 28.136719 222.121094 28.136719 218.789062 Z M 28.136719 218.789062 " fill-opacity="1" fill-rule="evenodd"/></g><path fill="#fe4eee" d="M 72.945312 187.652344 L 67.65625 178.480469 C 66.519531 176.542969 66.613281 174.195312 67.65625 172.386719 L 50.496094 202.15625 L 42.671875 215.804688 C 40.996094 218.722656 41.976562 222.46875 44.890625 224.152344 C 47.800781 225.832031 51.539062 224.847656 53.21875 221.929688 L 61.007812 208.441406 Z M 108.886719 180.734375 L 114.175781 189.90625 C 115.316406 191.839844 115.222656 194.191406 114.175781 196 L 131.339844 166.230469 L 139.195312 152.613281 C 140.871094 149.691406 139.890625 145.949219 136.976562 144.265625 C 134.0625 142.582031 130.328125 143.566406 128.648438 146.488281 L 120.859375 159.976562 Z M 108.886719 180.734375 " fill-opacity="1" fill-rule="evenodd"/><g fill="#0f0f0f" fill-opacity="1"><g transform="translate(176.747643, 182.98326)"><g><path d="M 12.453125 0 L 3.640625 0 L 3.640625 -31.65625 L 12.453125 -31.65625 Z M 8.046875 -36 C 6.679688 -36 5.53125 -36.46875 4.59375 -37.40625 C 3.65625 -38.34375 3.1875 -39.488281 3.1875 -40.84375 C 3.1875 -42.207031 3.65625 -43.367188 4.59375 -44.328125 C 5.53125 -45.285156 6.679688 -45.765625 8.046875 -45.765625 C 9.398438 -45.765625 10.546875 -45.285156 11.484375 -44.328125 C 12.421875 -43.367188 12.890625 -42.207031 12.890625 -40.84375 C 12.890625 -39.488281 12.421875 -38.34375 11.484375 -37.40625 C 10.546875 -36.46875 9.398438 -36 8.046875 -36 Z M 8.046875 -36 "/></g></g></g><g fill="#0f0f0f" fill-opacity="1"><g transform="translate(190.468574, 182.98326)"><g><path d="M 21.1875 -32.546875 C 23.445312 -32.546875 25.53125 -32.109375 27.4375 -31.234375 C 29.351562 -30.367188 31.003906 -29.179688 32.390625 -27.671875 C 33.773438 -26.160156 34.859375 -24.394531 35.640625 -22.375 C 36.429688 -20.351562 36.828125 -18.191406 36.828125 -15.890625 C 36.828125 -13.597656 36.429688 -11.441406 35.640625 -9.421875 C 34.859375 -7.398438 33.773438 -5.628906 32.390625 -4.109375 C 31.003906 -2.597656 29.351562 -1.40625 27.4375 -0.53125 C 25.53125 0.332031 23.445312 0.765625 21.1875 0.765625 C 19.363281 0.765625 17.578125 0.4375 15.828125 -0.21875 C 14.085938 -0.882812 12.726562 -1.726562 11.75 -2.75 L 11.75 12.640625 L 2.9375 12.640625 L 2.9375 -31.65625 L 10.46875 -31.65625 L 11.75 -29.484375 C 12.976562 -30.585938 14.359375 -31.375 15.890625 -31.84375 C 17.421875 -32.3125 19.1875 -32.546875 21.1875 -32.546875 Z M 20.046875 -7.078125 C 21.191406 -7.078125 22.265625 -7.3125 23.265625 -7.78125 C 24.265625 -8.25 25.132812 -8.875 25.875 -9.65625 C 26.625 -10.445312 27.222656 -11.375 27.671875 -12.4375 C 28.117188 -13.507812 28.34375 -14.660156 28.34375 -15.890625 C 28.34375 -17.085938 28.117188 -18.226562 27.671875 -19.3125 C 27.222656 -20.394531 26.625 -21.328125 25.875 -22.109375 C 25.132812 -22.898438 24.265625 -23.53125 23.265625 -24 C 22.265625 -24.46875 21.191406 -24.703125 20.046875 -24.703125 C 18.890625 -24.703125 17.8125 -24.539062 16.8125 -24.21875 C 15.8125 -23.90625 14.9375 -23.394531 14.1875 -22.6875 C 13.445312 -21.988281 12.863281 -21.070312 12.4375 -19.9375 C 12.019531 -18.8125 11.8125 -17.460938 11.8125 -15.890625 C 11.8125 -14.398438 12.019531 -13.113281 12.4375 -12.03125 C 12.863281 -10.945312 13.445312 -10.03125 14.1875 -9.28125 C 14.9375 -8.539062 15.8125 -7.988281 16.8125 -7.625 C 17.8125 -7.257812 18.890625 -7.078125 20.046875 -7.078125 Z M 20.046875 -7.078125 "/></g></g></g><g fill="#0f0f0f" fill-opacity="1"><g transform="translate(225.760769, 182.98326)"><g><path d="M 11.546875 -27.25 C 11.972656 -27.9375 12.460938 -28.585938 13.015625 -29.203125 C 13.566406 -29.816406 14.226562 -30.367188 15 -30.859375 C 15.769531 -31.347656 16.640625 -31.738281 17.609375 -32.03125 C 18.585938 -32.332031 19.695312 -32.484375 20.9375 -32.484375 C 22.382812 -32.484375 24.066406 -32.226562 25.984375 -31.71875 L 25.140625 -23.875 C 24.679688 -23.957031 24.21875 -24.0625 23.75 -24.1875 C 23.363281 -24.269531 22.9375 -24.34375 22.46875 -24.40625 C 22 -24.476562 21.570312 -24.515625 21.1875 -24.515625 C 19.832031 -24.515625 18.566406 -24.320312 17.390625 -23.9375 C 16.222656 -23.550781 15.210938 -23.015625 14.359375 -22.328125 C 13.503906 -21.648438 12.820312 -20.832031 12.3125 -19.875 C 11.800781 -18.925781 11.546875 -17.894531 11.546875 -16.78125 L 11.546875 0 L 2.75 0 L 2.75 -31.65625 L 10.71875 -31.65625 Z M 11.546875 -27.25 "/></g></g></g><g fill="#0f0f0f" fill-opacity="1"><g transform="translate(249.629131, 182.98326)"><g><path d="M 12.453125 0 L 3.640625 0 L 3.640625 -31.65625 L 12.453125 -31.65625 Z M 8.046875 -36 C 6.679688 -36 5.53125 -36.46875 4.59375 -37.40625 C 3.65625 -38.34375 3.1875 -39.488281 3.1875 -40.84375 C 3.1875 -42.207031 3.65625 -43.367188 4.59375 -44.328125 C 5.53125 -45.285156 6.679688 -45.765625 8.046875 -45.765625 C 9.398438 -45.765625 10.546875 -45.285156 11.484375 -44.328125 C 12.421875 -43.367188 12.890625 -42.207031 12.890625 -40.84375 C 12.890625 -39.488281 12.421875 -38.34375 11.484375 -37.40625 C 10.546875 -36.46875 9.398438 -36 8.046875 -36 Z M 8.046875 -36 "/></g></g></g><g fill="#0f0f0f" fill-opacity="1"><g transform="translate(263.350059, 182.98326)"><g><path d="M 19.34375 -31.65625 C 20.53125 -31.65625 21.847656 -31.484375 23.296875 -31.140625 C 24.742188 -30.804688 26.101562 -30.171875 27.375 -29.234375 C 28.65625 -28.296875 29.734375 -26.992188 30.609375 -25.328125 C 31.484375 -23.671875 31.921875 -21.523438 31.921875 -18.890625 L 31.921875 0 L 23.046875 0 L 23.046875 -18.578125 C 23.046875 -19.554688 22.882812 -20.382812 22.5625 -21.0625 C 22.238281 -21.738281 21.8125 -22.28125 21.28125 -22.6875 C 20.75 -23.09375 20.144531 -23.390625 19.46875 -23.578125 C 18.789062 -23.773438 18.109375 -23.875 17.421875 -23.875 C 16.867188 -23.875 16.257812 -23.773438 15.59375 -23.578125 C 14.9375 -23.390625 14.320312 -23.082031 13.75 -22.65625 C 13.175781 -22.226562 12.695312 -21.675781 12.3125 -21 C 11.9375 -20.320312 11.75 -19.515625 11.75 -18.578125 L 11.75 0 L 2.9375 0 L 2.9375 -31.65625 L 10.46875 -31.65625 L 11.75 -29.234375 C 12.769531 -29.953125 13.914062 -30.535156 15.1875 -30.984375 C 16.46875 -31.429688 17.851562 -31.65625 19.34375 -31.65625 Z M 19.34375 -31.65625 "/></g></g></g><g fill="#0f0f0f" fill-opacity="1"><g transform="translate(295.451226, 182.98326)"><g><path d="M 14.546875 -11.359375 C 14.546875 -9.867188 15.003906 -8.71875 15.921875 -7.90625 C 16.835938 -7.101562 18.039062 -6.703125 19.53125 -6.703125 C 20.71875 -6.703125 21.910156 -6.9375 23.109375 -7.40625 L 23.109375 0 C 22.046875 0.34375 20.914062 0.628906 19.71875 0.859375 C 18.53125 1.097656 17.34375 1.21875 16.15625 1.21875 C 14.789062 1.21875 13.488281 1.046875 12.25 0.703125 C 11.019531 0.359375 9.914062 -0.222656 8.9375 -1.046875 C 7.957031 -1.878906 7.179688 -2.988281 6.609375 -4.375 C 6.035156 -5.757812 5.75 -7.472656 5.75 -9.515625 L 5.75 -23.8125 L 1.21875 -23.8125 L 1.21875 -29.75 L 5.75 -31.65625 L 5.75 -38.75 L 14.546875 -38.75 L 14.546875 -31.65625 L 23.109375 -31.65625 L 23.109375 -23.8125 L 14.546875 -23.8125 Z M 14.546875 -11.359375 "/></g></g></g><g fill="#0f0f0f" fill-opacity="1"><g transform="translate(317.478103, 182.98326)"><g/></g></g><g fill="#0f0f0f" fill-opacity="1"><g transform="translate(148.766817, 209.602282)"><g><path d="M 5.96875 -4.375 C 6.3125 -4.175781 6.570312 -3.921875 6.75 -3.609375 C 6.925781 -3.296875 7.015625 -2.9375 7.015625 -2.53125 C 7.015625 -2.144531 6.921875 -1.785156 6.734375 -1.453125 C 6.546875 -1.117188 6.285156 -0.828125 5.953125 -0.578125 C 5.648438 -0.347656 5.300781 -0.171875 4.90625 -0.046875 C 4.519531 0.078125 4.113281 0.144531 3.6875 0.15625 C 3.25 0.15625 2.832031 0.0976562 2.4375 -0.015625 C 2.050781 -0.140625 1.707031 -0.320312 1.40625 -0.5625 C 0.945312 -0.90625 0.632812 -1.320312 0.46875 -1.8125 L 2.140625 -2.59375 C 2.140625 -2.507812 2.164062 -2.40625 2.21875 -2.28125 C 2.28125 -2.164062 2.367188 -2.050781 2.484375 -1.9375 C 2.609375 -1.832031 2.765625 -1.738281 2.953125 -1.65625 C 3.148438 -1.570312 3.390625 -1.53125 3.671875 -1.53125 C 3.898438 -1.53125 4.097656 -1.554688 4.265625 -1.609375 C 4.441406 -1.671875 4.585938 -1.742188 4.703125 -1.828125 C 4.816406 -1.910156 4.898438 -2.003906 4.953125 -2.109375 C 5.015625 -2.222656 5.046875 -2.335938 5.046875 -2.453125 C 5.046875 -2.578125 5.003906 -2.691406 4.921875 -2.796875 C 4.835938 -2.910156 4.707031 -3.003906 4.53125 -3.078125 C 4.21875 -3.179688 3.878906 -3.269531 3.515625 -3.34375 C 3.160156 -3.425781 2.816406 -3.523438 2.484375 -3.640625 C 2.148438 -3.753906 1.835938 -3.90625 1.546875 -4.09375 C 1.253906 -4.289062 1.023438 -4.5625 0.859375 -4.90625 C 0.710938 -5.207031 0.640625 -5.53125 0.640625 -5.875 C 0.640625 -6.257812 0.726562 -6.628906 0.90625 -6.984375 C 1.082031 -7.347656 1.328125 -7.65625 1.640625 -7.90625 C 1.941406 -8.132812 2.273438 -8.3125 2.640625 -8.4375 C 3.003906 -8.5625 3.390625 -8.625 3.796875 -8.625 C 4.210938 -8.625 4.601562 -8.5625 4.96875 -8.4375 C 5.34375 -8.320312 5.675781 -8.148438 5.96875 -7.921875 C 6.257812 -7.703125 6.488281 -7.445312 6.65625 -7.15625 L 5.296875 -6.234375 C 5.128906 -6.460938 4.914062 -6.644531 4.65625 -6.78125 C 4.40625 -6.925781 4.125 -7 3.8125 -7 C 3.382812 -7 3.050781 -6.898438 2.8125 -6.703125 C 2.570312 -6.515625 2.453125 -6.265625 2.453125 -5.953125 C 2.453125 -5.804688 2.519531 -5.675781 2.65625 -5.5625 C 2.789062 -5.457031 2.960938 -5.359375 3.171875 -5.265625 C 3.378906 -5.179688 3.613281 -5.101562 3.875 -5.03125 C 4.144531 -4.96875 4.410156 -4.898438 4.671875 -4.828125 C 4.929688 -4.765625 5.175781 -4.695312 5.40625 -4.625 C 5.644531 -4.550781 5.832031 -4.46875 5.96875 -4.375 Z M 5.96875 -4.375 "/></g></g></g><g fill="#0f0f0f" fill-opacity="1"><g transform="translate(157.358838, 209.602282)"><g><path d="M 4.234375 -8.515625 C 4.566406 -8.515625 4.878906 -8.445312 5.171875 -8.3125 C 5.472656 -8.175781 5.734375 -7.992188 5.953125 -7.765625 C 6.171875 -7.535156 6.34375 -7.265625 6.46875 -6.953125 C 6.601562 -6.648438 6.671875 -6.320312 6.671875 -5.96875 C 6.671875 -5.625 6.601562 -5.296875 6.46875 -4.984375 C 6.34375 -4.679688 6.171875 -4.410156 5.953125 -4.171875 C 5.734375 -3.941406 5.472656 -3.757812 5.171875 -3.625 C 4.878906 -3.5 4.566406 -3.4375 4.234375 -3.4375 L 2.375 -3.4375 L 2.375 0 L 0.5625 0 L 0.5625 -8.515625 Z M 4 -5.09375 C 4.226562 -5.09375 4.425781 -5.175781 4.59375 -5.34375 C 4.769531 -5.519531 4.859375 -5.726562 4.859375 -5.96875 C 4.859375 -6.21875 4.769531 -6.425781 4.59375 -6.59375 C 4.425781 -6.769531 4.226562 -6.859375 4 -6.859375 L 2.375 -6.859375 L 2.375 -5.09375 Z M 4 -5.09375 "/></g></g></g><g fill="#0f0f0f" fill-opacity="1"><g transform="translate(165.374854, 209.602282)"><g><path d="M 0.578125 -8.515625 L 5.890625 -8.515625 L 5.890625 -6.859375 L 2.40625 -6.859375 L 2.40625 -5.3125 L 5.46875 -5.3125 L 5.46875 -3.65625 L 2.40625 -3.65625 L 2.40625 -1.640625 L 5.890625 -1.640625 L 5.890625 0 L 0.578125 0 Z M 0.578125 -8.515625 "/></g></g></g><g fill="#0f0f0f" fill-opacity="1"><g transform="translate(173.042879, 209.602282)"><g><path d="M 5.96875 -4.375 C 6.3125 -4.175781 6.570312 -3.921875 6.75 -3.609375 C 6.925781 -3.296875 7.015625 -2.9375 7.015625 -2.53125 C 7.015625 -2.144531 6.921875 -1.785156 6.734375 -1.453125 C 6.546875 -1.117188 6.285156 -0.828125 5.953125 -0.578125 C 5.648438 -0.347656 5.300781 -0.171875 4.90625 -0.046875 C 4.519531 0.078125 4.113281 0.144531 3.6875 0.15625 C 3.25 0.15625 2.832031 0.0976562 2.4375 -0.015625 C 2.050781 -0.140625 1.707031 -0.320312 1.40625 -0.5625 C 0.945312 -0.90625 0.632812 -1.320312 0.46875 -1.8125 L 2.140625 -2.59375 C 2.140625 -2.507812 2.164062 -2.40625 2.21875 -2.28125 C 2.28125 -2.164062 2.367188 -2.050781 2.484375 -1.9375 C 2.609375 -1.832031 2.765625 -1.738281 2.953125 -1.65625 C 3.148438 -1.570312 3.390625 -1.53125 3.671875 -1.53125 C 3.898438 -1.53125 4.097656 -1.554688 4.265625 -1.609375 C 4.441406 -1.671875 4.585938 -1.742188 4.703125 -1.828125 C 4.816406 -1.910156 4.898438 -2.003906 4.953125 -2.109375 C 5.015625 -2.222656 5.046875 -2.335938 5.046875 -2.453125 C 5.046875 -2.578125 5.003906 -2.691406 4.921875 -2.796875 C 4.835938 -2.910156 4.707031 -3.003906 4.53125 -3.078125 C 4.21875 -3.179688 3.878906 -3.269531 3.515625 -3.34375 C 3.160156 -3.425781 2.816406 -3.523438 2.484375 -3.640625 C 2.148438 -3.753906 1.835938 -3.90625 1.546875 -4.09375 C 1.253906 -4.289062 1.023438 -4.5625 0.859375 -4.90625 C 0.710938 -5.207031 0.640625 -5.53125 0.640625 -5.875 C 0.640625 -6.257812 0.726562 -6.628906 0.90625 -6.984375 C 1.082031 -7.347656 1.328125 -7.65625 1.640625 -7.90625 C 1.941406 -8.132812 2.273438 -8.3125 2.640625 -8.4375 C 3.003906 -8.5625 3.390625 -8.625 3.796875 -8.625 C 4.210938 -8.625 4.601562 -8.5625 4.96875 -8.4375 C 5.34375 -8.320312 5.675781 -8.148438 5.96875 -7.921875 C 6.257812 -7.703125 6.488281 -7.445312 6.65625 -7.15625 L 5.296875 -6.234375 C 5.128906 -6.460938 4.914062 -6.644531 4.65625 -6.78125 C 4.40625 -6.925781 4.125 -7 3.8125 -7 C 3.382812 -7 3.050781 -6.898438 2.8125 -6.703125 C 2.570312 -6.515625 2.453125 -6.265625 2.453125 -5.953125 C 2.453125 -5.804688 2.519531 -5.675781 2.65625 -5.5625 C 2.789062 -5.457031 2.960938 -5.359375 3.171875 -5.265625 C 3.378906 -5.179688 3.613281 -5.101562 3.875 -5.03125 C 4.144531 -4.96875 4.410156 -4.898438 4.671875 -4.828125 C 4.929688 -4.765625 5.175781 -4.695312 5.40625 -4.625 C 5.644531 -4.550781 5.832031 -4.46875 5.96875 -4.375 Z M 5.96875 -4.375 "/></g></g></g><g fill="#0f0f0f" fill-opacity="1"><g transform="translate(181.634899, 209.602282)"><g><path d="M 3.65625 -8.515625 L 3.65625 -6.96875 L 3.03125 -6.96875 L 3.03125 -1.53125 L 3.65625 -1.53125 L 3.65625 0 L 0.5625 0 L 0.5625 -1.53125 L 1.203125 -1.53125 L 1.203125 -6.96875 L 0.5625 -6.96875 L 0.5625 -8.515625 Z M 3.65625 -8.515625 "/></g></g></g><g fill="#0f0f0f" fill-opacity="1"><g transform="translate(187.046915, 209.602282)"><g><path d="M 5.796875 -8.515625 L 9.34375 0 L 7.375 0 L 6.609375 -1.828125 L 3 -1.828125 L 2.25 0 L 0.265625 0 L 3.8125 -8.515625 Z M 5.921875 -3.484375 L 4.8125 -6.15625 L 3.703125 -3.484375 Z M 5.921875 -3.484375 "/></g></g></g><g fill="#0f0f0f" fill-opacity="1"><g transform="translate(197.858941, 209.602282)"><g><path d="M 2.390625 -1.640625 L 5.875 -1.640625 L 5.875 0 L 0.5625 0 L 0.5625 -8.515625 L 2.390625 -8.515625 Z M 2.390625 -1.640625 "/></g></g></g><g fill="#0f0f0f" fill-opacity="1"><g transform="translate(205.058962, 209.602282)"><g><path d="M 3.65625 -8.515625 L 3.65625 -6.96875 L 3.03125 -6.96875 L 3.03125 -1.53125 L 3.65625 -1.53125 L 3.65625 0 L 0.5625 0 L 0.5625 -1.53125 L 1.203125 -1.53125 L 1.203125 -6.96875 L 0.5625 -6.96875 L 0.5625 -8.515625 Z M 3.65625 -8.515625 "/></g></g></g><g fill="#0f0f0f" fill-opacity="1"><g transform="translate(210.470976, 209.602282)"><g><path d="M 5.96875 -4.375 C 6.3125 -4.175781 6.570312 -3.921875 6.75 -3.609375 C 6.925781 -3.296875 7.015625 -2.9375 7.015625 -2.53125 C 7.015625 -2.144531 6.921875 -1.785156 6.734375 -1.453125 C 6.546875 -1.117188 6.285156 -0.828125 5.953125 -0.578125 C 5.648438 -0.347656 5.300781 -0.171875 4.90625 -0.046875 C 4.519531 0.078125 4.113281 0.144531 3.6875 0.15625 C 3.25 0.15625 2.832031 0.0976562 2.4375 -0.015625 C 2.050781 -0.140625 1.707031 -0.320312 1.40625 -0.5625 C 0.945312 -0.90625 0.632812 -1.320312 0.46875 -1.8125 L 2.140625 -2.59375 C 2.140625 -2.507812 2.164062 -2.40625 2.21875 -2.28125 C 2.28125 -2.164062 2.367188 -2.050781 2.484375 -1.9375 C 2.609375 -1.832031 2.765625 -1.738281 2.953125 -1.65625 C 3.148438 -1.570312 3.390625 -1.53125 3.671875 -1.53125 C 3.898438 -1.53125 4.097656 -1.554688 4.265625 -1.609375 C 4.441406 -1.671875 4.585938 -1.742188 4.703125 -1.828125 C 4.816406 -1.910156 4.898438 -2.003906 4.953125 -2.109375 C 5.015625 -2.222656 5.046875 -2.335938 5.046875 -2.453125 C 5.046875 -2.578125 5.003906 -2.691406 4.921875 -2.796875 C 4.835938 -2.910156 4.707031 -3.003906 4.53125 -3.078125 C 4.21875 -3.179688 3.878906 -3.269531 3.515625 -3.34375 C 3.160156 -3.425781 2.816406 -3.523438 2.484375 -3.640625 C 2.148438 -3.753906 1.835938 -3.90625 1.546875 -4.09375 C 1.253906 -4.289062 1.023438 -4.5625 0.859375 -4.90625 C 0.710938 -5.207031 0.640625 -5.53125 0.640625 -5.875 C 0.640625 -6.257812 0.726562 -6.628906 0.90625 -6.984375 C 1.082031 -7.347656 1.328125 -7.65625 1.640625 -7.90625 C 1.941406 -8.132812 2.273438 -8.3125 2.640625 -8.4375 C 3.003906 -8.5625 3.390625 -8.625 3.796875 -8.625 C 4.210938 -8.625 4.601562 -8.5625 4.96875 -8.4375 C 5.34375 -8.320312 5.675781 -8.148438 5.96875 -7.921875 C 6.257812 -7.703125 6.488281 -7.445312 6.65625 -7.15625 L 5.296875 -6.234375 C 5.128906 -6.460938 4.914062 -6.644531 4.65625 -6.78125 C 4.40625 -6.925781 4.125 -7 3.8125 -7 C 3.382812 -7 3.050781 -6.898438 2.8125 -6.703125 C 2.570312 -6.515625 2.453125 -6.265625 2.453125 -5.953125 C 2.453125 -5.804688 2.519531 -5.675781 2.65625 -5.5625 C 2.789062 -5.457031 2.960938 -5.359375 3.171875 -5.265625 C 3.378906 -5.179688 3.613281 -5.101562 3.875 -5.03125 C 4.144531 -4.96875 4.410156 -4.898438 4.671875 -4.828125 C 4.929688 -4.765625 5.175781 -4.695312 5.40625 -4.625 C 5.644531 -4.550781 5.832031 -4.46875 5.96875 -4.375 Z M 5.96875 -4.375 "/></g></g></g><g fill="#0f0f0f" fill-opacity="1"><g transform="translate(219.062993, 209.602282)"><g/></g></g><g fill="#0f0f0f" fill-opacity="1"><g transform="translate(223.563005, 209.602282)"><g><path d="M 5.96875 -4.375 C 6.3125 -4.175781 6.570312 -3.921875 6.75 -3.609375 C 6.925781 -3.296875 7.015625 -2.9375 7.015625 -2.53125 C 7.015625 -2.144531 6.921875 -1.785156 6.734375 -1.453125 C 6.546875 -1.117188 6.285156 -0.828125 5.953125 -0.578125 C 5.648438 -0.347656 5.300781 -0.171875 4.90625 -0.046875 C 4.519531 0.078125 4.113281 0.144531 3.6875 0.15625 C 3.25 0.15625 2.832031 0.0976562 2.4375 -0.015625 C 2.050781 -0.140625 1.707031 -0.320312 1.40625 -0.5625 C 0.945312 -0.90625 0.632812 -1.320312 0.46875 -1.8125 L 2.140625 -2.59375 C 2.140625 -2.507812 2.164062 -2.40625 2.21875 -2.28125 C 2.28125 -2.164062 2.367188 -2.050781 2.484375 -1.9375 C 2.609375 -1.832031 2.765625 -1.738281 2.953125 -1.65625 C 3.148438 -1.570312 3.390625 -1.53125 3.671875 -1.53125 C 3.898438 -1.53125 4.097656 -1.554688 4.265625 -1.609375 C 4.441406 -1.671875 4.585938 -1.742188 4.703125 -1.828125 C 4.816406 -1.910156 4.898438 -2.003906 4.953125 -2.109375 C 5.015625 -2.222656 5.046875 -2.335938 5.046875 -2.453125 C 5.046875 -2.578125 5.003906 -2.691406 4.921875 -2.796875 C 4.835938 -2.910156 4.707031 -3.003906 4.53125 -3.078125 C 4.21875 -3.179688 3.878906 -3.269531 3.515625 -3.34375 C 3.160156 -3.425781 2.816406 -3.523438 2.484375 -3.640625 C 2.148438 -3.753906 1.835938 -3.90625 1.546875 -4.09375 C 1.253906 -4.289062 1.023438 -4.5625 0.859375 -4.90625 C 0.710938 -5.207031 0.640625 -5.53125 0.640625 -5.875 C 0.640625 -6.257812 0.726562 -6.628906 0.90625 -6.984375 C 1.082031 -7.347656 1.328125 -7.65625 1.640625 -7.90625 C 1.941406 -8.132812 2.273438 -8.3125 2.640625 -8.4375 C 3.003906 -8.5625 3.390625 -8.625 3.796875 -8.625 C 4.210938 -8.625 4.601562 -8.5625 4.96875 -8.4375 C 5.34375 -8.320312 5.675781 -8.148438 5.96875 -7.921875 C 6.257812 -7.703125 6.488281 -7.445312 6.65625 -7.15625 L 5.296875 -6.234375 C 5.128906 -6.460938 4.914062 -6.644531 4.65625 -6.78125 C 4.40625 -6.925781 4.125 -7 3.8125 -7 C 3.382812 -7 3.050781 -6.898438 2.8125 -6.703125 C 2.570312 -6.515625 2.453125 -6.265625 2.453125 -5.953125 C 2.453125 -5.804688 2.519531 -5.675781 2.65625 -5.5625 C 2.789062 -5.457031 2.960938 -5.359375 3.171875 -5.265625 C 3.378906 -5.179688 3.613281 -5.101562 3.875 -5.03125 C 4.144531 -4.96875 4.410156 -4.898438 4.671875 -4.828125 C 4.929688 -4.765625 5.175781 -4.695312 5.40625 -4.625 C 5.644531 -4.550781 5.832031 -4.46875 5.96875 -4.375 Z M 5.96875 -4.375 "/></g></g></g><g fill="#0f0f0f" fill-opacity="1"><g transform="translate(232.155022, 209.602282)"><g><path d="M 4.234375 -8.515625 C 4.566406 -8.515625 4.878906 -8.445312 5.171875 -8.3125 C 5.472656 -8.175781 5.734375 -7.992188 5.953125 -7.765625 C 6.171875 -7.535156 6.34375 -7.265625 6.46875 -6.953125 C 6.601562 -6.648438 6.671875 -6.320312 6.671875 -5.96875 C 6.671875 -5.625 6.601562 -5.296875 6.46875 -4.984375 C 6.34375 -4.679688 6.171875 -4.410156 5.953125 -4.171875 C 5.734375 -3.941406 5.472656 -3.757812 5.171875 -3.625 C 4.878906 -3.5 4.566406 -3.4375 4.234375 -3.4375 L 2.375 -3.4375 L 2.375 0 L 0.5625 0 L 0.5625 -8.515625 Z M 4 -5.09375 C 4.226562 -5.09375 4.425781 -5.175781 4.59375 -5.34375 C 4.769531 -5.519531 4.859375 -5.726562 4.859375 -5.96875 C 4.859375 -6.21875 4.769531 -6.425781 4.59375 -6.59375 C 4.425781 -6.769531 4.226562 -6.859375 4 -6.859375 L 2.375 -6.859375 L 2.375 -5.09375 Z M 4 -5.09375 "/></g></g></g><g fill="#0f0f0f" fill-opacity="1"><g transform="translate(240.171036, 209.602282)"><g><path d="M 5.796875 -8.515625 L 9.34375 0 L 7.375 0 L 6.609375 -1.828125 L 3 -1.828125 L 2.25 0 L 0.265625 0 L 3.8125 -8.515625 Z M 5.921875 -3.484375 L 4.8125 -6.15625 L 3.703125 -3.484375 Z M 5.921875 -3.484375 "/></g></g></g><g fill="#0f0f0f" fill-opacity="1"><g transform="translate(250.983058, 209.602282)"><g><path d="M 6.6875 -5.96875 C 6.6875 -5.695312 6.644531 -5.441406 6.5625 -5.203125 C 6.488281 -4.960938 6.382812 -4.738281 6.25 -4.53125 C 6.113281 -4.320312 5.945312 -4.140625 5.75 -3.984375 C 5.5625 -3.828125 5.359375 -3.703125 5.140625 -3.609375 L 7.953125 0 L 5.828125 0 L 3.203125 -3.4375 L 2.390625 -3.4375 L 2.390625 0 L 0.5625 0 L 0.5625 -8.515625 L 4.234375 -8.515625 C 4.566406 -8.515625 4.882812 -8.445312 5.1875 -8.3125 C 5.488281 -8.175781 5.75 -7.992188 5.96875 -7.765625 C 6.1875 -7.535156 6.359375 -7.265625 6.484375 -6.953125 C 6.617188 -6.648438 6.6875 -6.320312 6.6875 -5.96875 Z M 4.015625 -5.09375 C 4.242188 -5.09375 4.441406 -5.175781 4.609375 -5.34375 C 4.773438 -5.519531 4.859375 -5.726562 4.859375 -5.96875 C 4.859375 -6.21875 4.773438 -6.425781 4.609375 -6.59375 C 4.441406 -6.769531 4.242188 -6.859375 4.015625 -6.859375 L 2.390625 -6.859375 L 2.390625 -5.09375 Z M 4.015625 -5.09375 "/></g></g></g><g fill="#0f0f0f" fill-opacity="1"><g transform="translate(260.427077, 209.602282)"><g><path d="M 0.578125 -8.515625 L 5.890625 -8.515625 L 5.890625 -6.859375 L 2.40625 -6.859375 L 2.40625 -5.3125 L 5.46875 -5.3125 L 5.46875 -3.65625 L 2.40625 -3.65625 L 2.40625 -1.640625 L 5.890625 -1.640625 L 5.890625 0 L 0.578125 0 Z M 0.578125 -8.515625 "/></g></g></g><g fill="#0f0f0f" fill-opacity="1"><g transform="translate(268.095098, 209.602282)"><g><path d="M 4.234375 -8.515625 C 4.566406 -8.515625 4.878906 -8.445312 5.171875 -8.3125 C 5.472656 -8.175781 5.734375 -7.992188 5.953125 -7.765625 C 6.171875 -7.535156 6.34375 -7.265625 6.46875 -6.953125 C 6.601562 -6.648438 6.671875 -6.320312 6.671875 -5.96875 C 6.671875 -5.625 6.601562 -5.296875 6.46875 -4.984375 C 6.34375 -4.679688 6.171875 -4.410156 5.953125 -4.171875 C 5.734375 -3.941406 5.472656 -3.757812 5.171875 -3.625 C 4.878906 -3.5 4.566406 -3.4375 4.234375 -3.4375 L 2.375 -3.4375 L 2.375 0 L 0.5625 0 L 0.5625 -8.515625 Z M 4 -5.09375 C 4.226562 -5.09375 4.425781 -5.175781 4.59375 -5.34375 C 4.769531 -5.519531 4.859375 -5.726562 4.859375 -5.96875 C 4.859375 -6.21875 4.769531 -6.425781 4.59375 -6.59375 C 4.425781 -6.769531 4.226562 -6.859375 4 -6.859375 L 2.375 -6.859375 L 2.375 -5.09375 Z M 4 -5.09375 "/></g></g></g><g fill="#0f0f0f" fill-opacity="1"><g transform="translate(276.111112, 209.602282)"><g><path d="M 5.796875 -8.515625 L 9.34375 0 L 7.375 0 L 6.609375 -1.828125 L 3 -1.828125 L 2.25 0 L 0.265625 0 L 3.8125 -8.515625 Z M 5.921875 -3.484375 L 4.8125 -6.15625 L 3.703125 -3.484375 Z M 5.921875 -3.484375 "/></g></g></g><g fill="#0f0f0f" fill-opacity="1"><g transform="translate(286.923135, 209.602282)"><g><path d="M 6.6875 -5.96875 C 6.6875 -5.695312 6.644531 -5.441406 6.5625 -5.203125 C 6.488281 -4.960938 6.382812 -4.738281 6.25 -4.53125 C 6.113281 -4.320312 5.945312 -4.140625 5.75 -3.984375 C 5.5625 -3.828125 5.359375 -3.703125 5.140625 -3.609375 L 7.953125 0 L 5.828125 0 L 3.203125 -3.4375 L 2.390625 -3.4375 L 2.390625 0 L 0.5625 0 L 0.5625 -8.515625 L 4.234375 -8.515625 C 4.566406 -8.515625 4.882812 -8.445312 5.1875 -8.3125 C 5.488281 -8.175781 5.75 -7.992188 5.96875 -7.765625 C 6.1875 -7.535156 6.359375 -7.265625 6.484375 -6.953125 C 6.617188 -6.648438 6.6875 -6.320312 6.6875 -5.96875 Z M 4.015625 -5.09375 C 4.242188 -5.09375 4.441406 -5.175781 4.609375 -5.34375 C 4.773438 -5.519531 4.859375 -5.726562 4.859375 -5.96875 C 4.859375 -6.21875 4.773438 -6.425781 4.609375 -6.59375 C 4.441406 -6.769531 4.242188 -6.859375 4.015625 -6.859375 L 2.390625 -6.859375 L 2.390625 -5.09375 Z M 4.015625 -5.09375 "/></g></g></g><g fill="#0f0f0f" fill-opacity="1"><g transform="translate(296.367153, 209.602282)"><g><path d="M 0.28125 -8.515625 L 6.4375 -8.515625 L 6.4375 -6.859375 L 4.265625 -6.859375 L 4.265625 0 L 2.453125 0 L 2.453125 -6.859375 L 0.28125 -6.859375 Z M 0.28125 -8.515625 "/></g></g></g><g fill="#0f0f0f" fill-opacity="1"><g transform="translate(304.275169, 209.602282)"><g/></g></g><g fill="#0f0f0f" fill-opacity="1"><g transform="translate(308.77518, 209.602282)"><g><path d="M 4.234375 -8.515625 C 4.566406 -8.515625 4.878906 -8.445312 5.171875 -8.3125 C 5.472656 -8.175781 5.734375 -7.992188 5.953125 -7.765625 C 6.171875 -7.535156 6.34375 -7.265625 6.46875 -6.953125 C 6.601562 -6.648438 6.671875 -6.320312 6.671875 -5.96875 C 6.671875 -5.625 6.601562 -5.296875 6.46875 -4.984375 C 6.34375 -4.679688 6.171875 -4.410156 5.953125 -4.171875 C 5.734375 -3.941406 5.472656 -3.757812 5.171875 -3.625 C 4.878906 -3.5 4.566406 -3.4375 4.234375 -3.4375 L 2.375 -3.4375 L 2.375 0 L 0.5625 0 L 0.5625 -8.515625 Z M 4 -5.09375 C 4.226562 -5.09375 4.425781 -5.175781 4.59375 -5.34375 C 4.769531 -5.519531 4.859375 -5.726562 4.859375 -5.96875 C 4.859375 -6.21875 4.769531 -6.425781 4.59375 -6.59375 C 4.425781 -6.769531 4.226562 -6.859375 4 -6.859375 L 2.375 -6.859375 L 2.375 -5.09375 Z M 4 -5.09375 "/></g></g></g><g fill="#0f0f0f" fill-opacity="1"><g transform="translate(316.791194, 209.602282)"><g><path d="M 6.6875 -5.96875 C 6.6875 -5.695312 6.644531 -5.441406 6.5625 -5.203125 C 6.488281 -4.960938 6.382812 -4.738281 6.25 -4.53125 C 6.113281 -4.320312 5.945312 -4.140625 5.75 -3.984375 C 5.5625 -3.828125 5.359375 -3.703125 5.140625 -3.609375 L 7.953125 0 L 5.828125 0 L 3.203125 -3.4375 L 2.390625 -3.4375 L 2.390625 0 L 0.5625 0 L 0.5625 -8.515625 L 4.234375 -8.515625 C 4.566406 -8.515625 4.882812 -8.445312 5.1875 -8.3125 C 5.488281 -8.175781 5.75 -7.992188 5.96875 -7.765625 C 6.1875 -7.535156 6.359375 -7.265625 6.484375 -6.953125 C 6.617188 -6.648438 6.6875 -6.320312 6.6875 -5.96875 Z M 4.015625 -5.09375 C 4.242188 -5.09375 4.441406 -5.175781 4.609375 -5.34375 C 4.773438 -5.519531 4.859375 -5.726562 4.859375 -5.96875 C 4.859375 -6.21875 4.773438 -6.425781 4.609375 -6.59375 C 4.441406 -6.769531 4.242188 -6.859375 4.015625 -6.859375 L 2.390625 -6.859375 L 2.390625 -5.09375 Z M 4.015625 -5.09375 "/></g></g></g><g fill="#0f0f0f" fill-opacity="1"><g transform="translate(326.235212, 209.602282)"><g><path d="M 3.65625 -8.515625 L 3.65625 -6.96875 L 3.03125 -6.96875 L 3.03125 -1.53125 L 3.65625 -1.53125 L 3.65625 0 L 0.5625 0 L 0.5625 -1.53125 L 1.203125 -1.53125 L 1.203125 -6.96875 L 0.5625 -6.96875 L 0.5625 -8.515625 Z M 3.65625 -8.515625 "/></g></g></g><g fill="#0f0f0f" fill-opacity="1"><g transform="translate(331.647226, 209.602282)"><g><path d="M 6.390625 -8.515625 L 8.203125 -8.515625 L 8.203125 0 L 6.46875 0 L 2.375 -5.5625 L 2.375 0 L 0.5625 0 L 0.5625 -8.515625 L 2.265625 -8.515625 L 6.390625 -2.921875 Z M 6.390625 -8.515625 "/></g></g></g><g fill="#0f0f0f" fill-opacity="1"><g transform="translate(341.607259, 209.602282)"><g><path d="M 0.28125 -8.515625 L 6.4375 -8.515625 L 6.4375 -6.859375 L 4.265625 -6.859375 L 4.265625 0 L 2.453125 0 L 2.453125 -6.859375 L 0.28125 -6.859375 Z M 0.28125 -8.515625 "/></g></g></g><g fill="#0f0f0f" fill-opacity="1"><g transform="translate(349.515286, 209.602282)"><g><path d="M 0.578125 -8.515625 L 5.890625 -8.515625 L 5.890625 -6.859375 L 2.40625 -6.859375 L 2.40625 -5.3125 L 5.46875 -5.3125 L 5.46875 -3.65625 L 2.40625 -3.65625 L 2.40625 -1.640625 L 5.890625 -1.640625 L 5.890625 0 L 0.578125 0 Z M 0.578125 -8.515625 "/></g></g></g><g fill="#0f0f0f" fill-opacity="1"><g transform="translate(357.183308, 209.602282)"><g><path d="M 6.6875 -5.96875 C 6.6875 -5.695312 6.644531 -5.441406 6.5625 -5.203125 C 6.488281 -4.960938 6.382812 -4.738281 6.25 -4.53125 C 6.113281 -4.320312 5.945312 -4.140625 5.75 -3.984375 C 5.5625 -3.828125 5.359375 -3.703125 5.140625 -3.609375 L 7.953125 0 L 5.828125 0 L 3.203125 -3.4375 L 2.390625 -3.4375 L 2.390625 0 L 0.5625 0 L 0.5625 -8.515625 L 4.234375 -8.515625 C 4.566406 -8.515625 4.882812 -8.445312 5.1875 -8.3125 C 5.488281 -8.175781 5.75 -7.992188 5.96875 -7.765625 C 6.1875 -7.535156 6.359375 -7.265625 6.484375 -6.953125 C 6.617188 -6.648438 6.6875 -6.320312 6.6875 -5.96875 Z M 4.015625 -5.09375 C 4.242188 -5.09375 4.441406 -5.175781 4.609375 -5.34375 C 4.773438 -5.519531 4.859375 -5.726562 4.859375 -5.96875 C 4.859375 -6.21875 4.773438 -6.425781 4.609375 -6.59375 C 4.441406 -6.769531 4.242188 -6.859375 4.015625 -6.859375 L 2.390625 -6.859375 L 2.390625 -5.09375 Z M 4.015625 -5.09375 "/></g></g></g></svg>